<?xml version="1.0" encoding="UTF-8" standalone="no"?>
<svg
   width="3500"
   height="1200"
   viewBox="0 0 3500 1200"
   fill="none"
   version="1.1"
   id="svg16"
   sodipodi:docname="astro.svg"
   inkscape:version="1.2 (dc2aedaf03, 2022-05-15)"
   xmlns:inkscape="http://www.inkscape.org/namespaces/inkscape"
   xmlns:sodipodi="http://sodipodi.sourceforge.net/DTD/sodipodi-0.dtd"
   xmlns="http://www.w3.org/2000/svg"
   xmlns:svg="http://www.w3.org/2000/svg">
  <defs
     id="defs20" />
  <sodipodi:namedview
     id="namedview18"
     pagecolor="#000000"
     bordercolor="#666666"
     borderopacity="1.0"
     inkscape:showpageshadow="2"
     inkscape:pageopacity="0"
     inkscape:pagecheckerboard="0"
     inkscape:deskcolor="#d1d1d1"
     showgrid="false"
     inkscape:zoom="0.20157997"
     inkscape:cx="1041.7702"
     inkscape:cy="131.46147"
     inkscape:window-width="1920"
     inkscape:window-height="1026"
     inkscape:window-x="0"
     inkscape:window-y="0"
     inkscape:window-maximized="1"
     inkscape:current-layer="svg16" />
  <rect
     style="fill:#000000;stroke-width:0.773744;stroke-linecap:round;paint-order:stroke markers fill"
     id="rect188"
     width="3500"
     height="1200"
     x="0"
     y="0" />
  <g
     id="g926"
     transform="translate(393.84551,251.15171)">
    <path
       fill-rule="evenodd"
       clip-rule="evenodd"
       d="m 445.432,22.9832 c 7.29,9.0492 11.007,21.26 18.441,45.6815 L 626.28,602.176 C 566.233,571.026 500.957,548.56 432.114,536.439 L 326.37,179.099 c -1.73,-5.847 -7.1,-9.858 -13.197,-9.858 -6.113,0 -11.494,4.032 -13.21,9.899 L 195.5,536.259 C 126.337,548.325 60.7627,570.832 0.458984,602.095 L 163.664,68.5412 c 7.457,-24.3795 11.186,-36.5694 18.475,-45.6019 6.436,-7.9742 14.807,-14.16717 24.314,-17.98882 10.77,-4.328898 23.517,-4.328898 49.012,-4.328898 h 116.569 c 25.528,0 38.292,0 49.072,4.337928 9.516,3.82957 17.892,10.03509 24.326,18.02369 z"
       fill="#ffffff"
       id="path2" />
    <path
       fill-rule="evenodd"
       clip-rule="evenodd"
       d="m 464.866,627.566 c -26.773,22.894 -80.211,38.507 -141.766,38.507 -75.549,0 -138.872,-23.52 -155.675,-55.152 -6.007,18.129 -7.354,38.877 -7.354,52.131 0,0 -3.957,65.082 41.309,110.349 0,-23.505 19.054,-42.559 42.558,-42.559 40.287,0 40.242,35.148 40.205,63.664 -10e-4,0.854 -0.002,1.703 -0.002,2.545 0,43.282 26.453,80.385 64.074,96.024 -5.619,-11.557 -8.771,-24.535 -8.771,-38.25 0,-41.28 24.234,-56.65 52.4,-74.514 22.41,-14.213 47.31,-30.004 64.47,-61.682 8.954,-16.528 14.038,-35.459 14.038,-55.577 0,-12.372 -1.923,-24.295 -5.486,-35.486 z"
       fill="#ff5d01"
       id="path4" />
    <path
       d="m 999.147,593.833 c 67.933,0 118.883,-24.168 139.783,-65.317 0,19.595 1.3,39.844 4.57,55.52 h 111.69 c -5.22,-22.863 -7.84,-54.216 -7.84,-95.365 v -100.59 c 0,-95.364 -56.17,-140.433 -180.93,-140.433 -109.076,0 -182.232,45.069 -190.724,118.879 h 116.266 c 3.919,-32.006 30.698,-49.642 74.458,-49.642 43.11,0 67.28,17.636 67.28,54.215 v 9.796 l -118.22,10.451 c -57.483,5.88 -90.142,15.676 -113.004,31.353 -24.167,16.328 -36.578,41.151 -36.578,71.849 0,61.399 50.949,99.284 133.249,99.284 z m 43.113,-67.931 c -37.89,0 -60.749,-15.022 -60.749,-39.19 0,-24.82 18.939,-37.885 66.629,-43.763 l 87.52,-9.144 V 453.4 c 0,43.763 -37.88,72.502 -93.4,72.502 z"
       fill="#ffffff"
       id="path6" />
    <path
       d="m 1490.77,593.833 c 113.65,0 171.79,-42.456 171.79,-111.04 0,-56.827 -32.66,-88.18 -111.69,-98.631 l -98.64,-11.103 c -28.08,-3.921 -39.84,-11.106 -39.84,-26.782 0,-18.941 18.94,-27.433 62.05,-27.433 59.44,0 100.59,13.717 133.91,40.498 l 52.9,-52.908 c -36.58,-37.884 -99.93,-58.786 -178.32,-58.786 -110.38,0 -171.78,39.19 -171.78,105.161 0,57.48 37.88,89.486 116.26,99.936 l 88.84,10.451 c 35.27,4.573 45.72,11.106 45.72,28.087 0,19.597 -19.6,30.048 -65.32,30.048 -67.93,0 -113.65,-18.29 -144.35,-52.255 l -60.1,49.641 c 39.85,49.643 107.78,75.116 198.57,75.116 z"
       fill="#ffffff"
       id="path8" />
    <path
       d="m 1754.78,331.255 v 137.821 c 0,80.994 45.72,122.145 143.7,122.145 30.05,0 53.56,-3.266 75.77,-9.798 v -84.915 c -11.76,2.614 -26.13,5.226 -45.07,5.226 -41.15,0 -61.4,-18.288 -61.4,-56.826 V 331.255 h 107.12 v -73.81 H 1867.78 V 137.914 l -113,41.803 v 77.728 h -73.16 v 73.81 z"
       fill="#ffffff"
       id="path10" />
    <path
       d="m 2137.13,257.445 h -103.2 v 326.591 h 113 V 461.892 c 0,-35.274 7.84,-67.279 29.4,-87.528 16.98,-15.677 41.15,-24.166 75.11,-24.166 12.41,0 22.21,1.304 33.31,2.611 V 250.26 c -7.18,-1.306 -12.41,-1.306 -21.55,-1.306 -64.67,0 -108.43,37.231 -126.07,97.978 z"
       fill="#ffffff"
       id="path12" />
    <path
       d="m 2508.05,593.833 c 119.54,0 203.8,-63.358 203.8,-173.745 0,-109.735 -84.26,-172.44 -203.8,-172.44 -120.18,0 -204.44,62.705 -204.44,172.44 0,110.387 84.26,173.745 204.44,173.745 z m 0,-75.116 c -54.86,0 -89.48,-35.271 -89.48,-98.629 0,-63.36 34.62,-97.325 89.48,-97.325 54.22,0 88.84,33.965 88.84,97.325 0,63.358 -34.62,98.629 -88.84,98.629 z"
       fill="#ffffff"
       id="path14" />
  </g>
</svg>
